Full Credits To Feel Free :)

 ######## ######## ######## ##          ######## ########  ######## ######## 
 ##       ##       ##       ##          ##       ##     ## ##       ##       
 ##       ##       ##       ##          ##       ##     ## ##       ##       
 ######   ######   ######   ##          ######   ########  ######   ######   
 ##       ##       ##       ##          ##       ##   ##   ##       ##       
 ##       ##       ##       ##          ##       ##    ##  ##       ##       
 ##       ######## ######## ########    ##       ##     ## ######## ########

Genre:Comedy | Family 
 Language:English
 IMDb:  http://www.imdb.com/title/tt1396218/
 Source:1080p.x264.DTS-HDChina Thanks!

 Format : MPEG-4
 Format profile : Base Media
 Codec ID : isom
 File size : 2.26 GiB
 Duration : 1h 34mn
 Overall bit rate : 3 435 Kbps

 Video
 ID : 1
 Format : AVC
 Format/Info : Advanced Video Codec
 Format profile : High@L4.1
 Format settings, CABAC : Yes
 Format settings, ReFrames : 3 frames
 Codec ID : avc1
 Codec ID/Info : Advanced Video Coding
 Duration : 1h 34mn
 Bit rate mode : Variable
 Bit rate : 3 000 Kbps
 Maximum bit rate : 18.7 Mbps
 Width : 1 280 pixels
 Height : 688 pixels
 Display aspect ratio : 1.860
 Frame rate mode : Constant
 Frame rate : 23.976 fps
 Color space : YUV
 Chroma subsampling : 4:2:0
 Bit depth : 8 bits
 Scan type : Progressive
 Bits/(Pixel*Frame) : 0.142
 Stream size : 1.97 GiB (87%)
 Writing library : x264


 Audio
 ID : 2
 Format : AAC
 Format/Info : Advanced Audio Codec
 Format version : Version 4
 Format profile : LC
 Format settings, SBR : No
 Codec ID : 40
 Duration : 1h 34mn
 Bit rate mode : Variable
 Bit rate : 442 Kbps
 Maximum bit rate : 522 Kbps
 Channel(s) : 6 channels
 Channel positions : Front: L C R, Side: L R, LFE
 Sampling rate : 48.0 KHz
 Stream size : 299 MiB (13%)



 Plot:
 The life of a businessman begins to change after he inherits six penguins, and as he transforms his apartment into a winter wonderland, his professional side starts to unravel.


Greets:

 INK,CRYS,IMAGINE,LKRG,FXG,3Li,FLAWL3SS,TA,iLLUSiON,ViSiON,DTRG 
 SAFCuk009,LU,TheFalcon007,MYSTiC,PrisM,Noir,WBZ,LAP,Rx,Kingdom,SAFCuk009+Fabreezy,
 HDLiTE,TWiZTED,ExtraTorrentRG.ELEKTRI4KA,MAGNAT,CM8
 And to all the other p2p grps past and present






==================================                                                      
http://thepiratebay.org/user/hiest
==================================






Screenshots:
 
http://www.pix2links.com/images/95876156416549636679.png
 
http://www.pix2links.com/images/79150571470790655437.png
 
http://www.pix2links.com/images/96298492708515221899.png
 
http://www.pix2links.com/images/23823943729998433986.png


Full Credits To Feel Free :)

 ######## ######## ######## ##          ######## ########  ######## ######## 
 ##       ##       ##       ##          ##       ##     ## ##       ##       
 ##       ##       ##       ##          ##       ##     ## ##       ##       
 ######   ######   ######   ##          ######   ########  ######   ######   
 ##       ##       ##       ##          ##       ##   ##   ##       ##       
 ##       ##       ##       ##          ##       ##    ##  ##       ##       
 ##       ######## ######## ########    ##       ##     ## ######## ########